<svg width="472" height="472" viewBox="0 0 472 472" fill="none" xmlns="http://www.w3.org/2000/svg">
<path fill-rule="evenodd" clip-rule="evenodd" d="M138.457 38.7519C106.71 54.4816 79.3029 77.65 58.5149 105.979L59.2501 106.404C79.8699 78.3293 107.018 55.3471 138.457 39.6951V38.7519ZM331.009 38.454C363.656 54.1842 391.806 77.7689 413.008 106.757L413.743 106.331C392.375 77.09 363.965 53.3204 331.009 37.5167V38.454ZM260.914 454.605V453.755C286.053 450.91 309.904 443.812 331.729 433.198H333.645C311.29 444.288 286.781 451.689 260.914 454.605ZM455.856 227.977H455.011C454.013 200.229 447.856 173.796 437.47 149.608L438.206 149.181C448.66 173.497 454.856 200.075 455.856 227.977ZM211.931 453.849V454.698C179.649 451.186 149.465 440.69 122.92 424.753H124.57C150.692 440.207 180.3 450.393 211.931 453.849ZM16.9119 230.511C17.6206 201.684 23.8957 174.237 34.703 149.206L33.9669 148.78C23.091 173.938 16.7769 201.53 16.0671 230.511H16.9119Z" fill="#3A3A3A"/>
<g clip-path="url(#clip0_3901_3101)">
<path fill-rule="evenodd" clip-rule="evenodd" d="M42.1602 137.747C47.0961 139.027 52.4737 136.931 55.1474 132.3C58.3589 126.737 56.4531 119.625 50.8906 116.413C50.0213 115.911 49.1143 115.534 48.1901 115.277C48.0053 115.225 47.8198 115.179 47.6338 115.137C42.7977 114.045 37.6129 116.15 35.0035 120.67C31.792 126.233 33.6978 133.345 39.2604 136.557C40.192 137.095 41.1672 137.489 42.1602 137.747ZM51.3749 115.574C57.401 119.053 59.4656 126.758 55.9865 132.785C52.5073 138.811 44.8018 140.875 38.7758 137.396C32.7497 133.917 30.685 126.211 34.1642 120.185C37.6433 114.159 45.3488 112.095 51.3749 115.574Z" fill="#3A3A3A"/>
<path d="M41.6833 132.36L47.9829 121.449M47.9829 121.449L41.3633 123.223M47.9829 121.449L49.7565 128.069" stroke="#E2E2E2" stroke-width="1.45374"/>
</g>
<g clip-path="url(#clip1_3901_3101)">
<path fill-rule="evenodd" clip-rule="evenodd" d="M416.652 133.767C416.53 133.615 416.412 133.459 416.297 133.3C416.067 132.981 415.851 132.648 415.65 132.3C412.439 126.737 414.345 119.625 419.907 116.413C425.122 113.402 431.7 114.889 435.148 119.67C435.265 119.834 435.379 120.001 435.49 120.172C435.595 120.334 435.696 120.501 435.794 120.67C439.006 126.233 437.1 133.345 431.537 136.557C426.496 139.467 420.182 138.175 416.652 133.767ZM432.022 137.396C425.996 140.875 418.29 138.811 414.811 132.785C411.332 126.759 413.397 119.053 419.423 115.574C425.449 112.095 433.154 114.16 436.633 120.186C440.113 126.212 438.048 133.917 432.022 137.396Z" fill="#3A3A3A"/>
<path d="M422.33 120.61L428.63 131.521M428.63 131.521L430.403 124.901M428.63 131.521L422.01 129.747" stroke="#E2E2E2" stroke-width="1.45374"/>
</g>
<g clip-path="url(#clip2_3901_3101)">
<path fill-rule="evenodd" clip-rule="evenodd" d="M229.042 447.65C226.206 449.771 224.37 453.156 224.37 456.97C224.37 463.393 229.577 468.6 236 468.6C238.456 468.6 240.734 467.838 242.611 466.539C245.644 464.44 247.63 460.937 247.63 456.97C247.63 450.546 242.424 445.34 236 445.34C233.592 445.34 231.354 446.072 229.498 447.326C229.343 447.43 229.191 447.538 229.042 447.65ZM223.401 456.97C223.401 450.011 229.042 444.37 236 444.37C242.959 444.37 248.599 450.011 248.599 456.97C248.599 463.928 242.959 469.569 236 469.569C229.042 469.569 223.401 463.928 223.401 456.97Z" fill="#3A3A3A"/>
<path d="M242.784 456.97L230.185 456.97M230.185 456.97L235.031 461.815M230.185 456.97L235.031 452.124" stroke="#E2E2E2" stroke-width="1.45374"/>
</g>
<path d="M163.314 34.1718L161.943 34.7008L160.134 33.0366L155.004 35.0157L154.781 37.4643L153.446 37.9797L154.552 27.9666L155.816 27.4787L163.314 34.1718ZM159.256 32.2753L155.615 28.9277L155.131 33.8669L159.256 32.2753Z" fill="white"/>
<path d="M170.99 31.6181L164.161 33.9253L161.298 25.4523L162.499 25.0468L165.013 32.4877L170.641 30.586L170.99 31.6181Z" fill="white"/>
<path d="M178.995 29.2599L172.083 31.3025L169.548 22.7256L170.763 22.3666L172.989 29.8988L178.687 28.2151L178.995 29.2599Z" fill="white"/>
<path d="M182.436 24.9988L178.576 26.0115L178.313 25.0067L182.173 23.9941L182.436 24.9988Z" fill="white"/>
<path d="M186.986 27.2804L185.729 27.5794L183.659 18.8787L184.916 18.5796L186.986 27.2804Z" fill="white"/>
<path d="M197.984 24.9682L196.767 25.2138L188.437 19.3475C189.342 23.7483 189.838 26.164 189.925 26.5944L188.733 26.835L186.964 18.0681L188.243 17.81L196.521 23.6739C195.582 19.1506 195.083 16.7399 195.023 16.4419L196.215 16.2013L197.984 24.9682Z" fill="white"/>
<path d="M202.885 20.8801L198.946 21.5197L198.78 20.4943L202.718 19.8548L202.885 20.8801Z" fill="white"/>
<path d="M215.25 18.2311C215.406 19.5392 215.062 20.6819 214.218 21.659C213.383 22.6352 212.122 23.2242 210.437 23.426C208.768 23.6259 207.395 23.382 206.317 22.6945C205.247 21.9976 204.626 20.9322 204.455 19.4983C204.362 18.7269 204.426 18.0175 204.646 17.3702C204.865 16.7146 205.2 16.1684 205.649 15.7318C206.106 15.2859 206.641 14.9241 207.255 14.6465C207.868 14.369 208.531 14.1875 209.243 14.1021C209.923 14.0208 210.588 14.0389 211.24 14.1565C211.891 14.2656 212.499 14.4777 213.064 14.7928C213.637 15.0985 214.12 15.5467 214.514 16.1375C214.908 16.7282 215.153 17.4261 215.25 18.2311ZM213.964 18.2574C213.913 17.8298 213.788 17.4237 213.589 17.0393C213.398 16.6539 213.126 16.3037 212.774 15.9886C212.429 15.6642 211.962 15.4266 211.374 15.2759C210.786 15.1252 210.119 15.0945 209.373 15.1839C208.82 15.2501 208.309 15.3879 207.84 15.597C207.38 15.7968 206.973 16.0624 206.622 16.3937C206.27 16.725 206.009 17.139 205.839 17.6357C205.677 18.1313 205.633 18.6853 205.706 19.2974C205.838 20.3959 206.314 21.2149 207.136 21.7544C207.958 22.2939 209.023 22.4854 210.331 22.3287C211.06 22.2414 211.685 22.0644 212.206 21.7979C212.726 21.523 213.117 21.1956 213.377 20.8156C213.637 20.4273 213.814 20.0233 213.908 19.6037C214.002 19.1758 214.02 18.727 213.964 18.2574Z" fill="white"/>
<path d="M226.935 21.8307L225.696 21.9083L218.243 14.9623C218.54 19.4454 218.703 21.9061 218.73 22.3444L217.516 22.4203L216.957 13.4942L218.26 13.4127L225.662 20.3492C225.348 15.7402 225.182 13.284 225.163 12.9806L226.377 12.9046L226.935 21.8307Z" fill="white"/>
<path d="M237.372 21.6718L228.797 21.7893L228.674 12.8465L236.92 12.7336L236.935 13.8356L229.956 13.9312L229.992 16.5912L236.794 16.498L236.809 17.562L230.007 17.6552L230.048 20.6699L237.357 20.5698L237.372 21.6718Z" fill="white"/>
<path d="M241.841 19.9611L243.042 19.5388C243.185 19.7067 243.297 19.8348 243.378 19.9234C243.458 20.0035 243.588 20.1072 243.768 20.2345C243.948 20.3619 244.162 20.4824 244.41 20.5962C245.095 20.9179 245.944 21.1038 246.957 21.1542C248.019 21.2071 248.827 21.0443 249.378 20.6659C249.798 20.3739 250.021 19.9834 250.045 19.4941C250.059 19.2242 250.002 18.9931 249.877 18.8008C249.759 18.609 249.577 18.4604 249.328 18.355C249.08 18.2412 248.843 18.1575 248.618 18.104C248.4 18.0509 248.132 18.0038 247.813 17.9625L246.453 17.768C245.731 17.6644 245.227 17.5886 244.942 17.5406C244.666 17.4846 244.37 17.3938 244.055 17.2682C243.749 17.143 243.495 16.9782 243.293 16.7737C242.891 16.3647 242.705 15.8565 242.735 15.2492C242.78 14.3382 243.227 13.684 244.076 13.2865C244.804 12.9338 245.796 12.7887 247.053 12.8512C249.187 12.9574 250.646 13.6304 251.429 14.8701L250.242 15.2803C249.832 14.854 249.379 14.5271 248.883 14.2995C248.387 14.0718 247.764 13.9393 247.013 13.902C246.65 13.8839 246.307 13.8923 245.984 13.9269C245.662 13.9531 245.346 14.0093 245.037 14.0954C244.737 14.1819 244.493 14.3262 244.306 14.5283C244.118 14.7219 244.018 14.9621 244.003 15.2489C243.992 15.4766 244.029 15.673 244.114 15.8378C244.207 15.9947 244.349 16.1201 244.539 16.2141C244.729 16.2997 244.912 16.368 245.087 16.419C245.262 16.4615 245.484 16.5022 245.753 16.5409L248.511 16.9445C249.434 17.0834 250.138 17.3721 250.624 17.8106C251.109 18.2491 251.334 18.8269 251.298 19.5438C251.28 19.9149 251.195 20.2574 251.044 20.5712C250.893 20.885 250.655 21.1818 250.328 21.4615C250.001 21.7327 249.534 21.942 248.927 22.0894C248.319 22.2283 247.603 22.2771 246.776 22.236C245.663 22.1806 244.659 21.9658 243.764 21.5915C242.869 21.2172 242.228 20.6737 241.841 19.9611Z" fill="white"/>
<path d="M264.126 19.1938C263.987 20.5039 263.398 21.5414 262.357 22.3061C261.325 23.0718 259.965 23.3654 258.277 23.187C256.606 23.0103 255.321 22.4669 254.424 21.5568C253.536 20.6392 253.168 19.4623 253.319 18.0262C253.401 17.2535 253.621 16.5762 253.98 15.9941C254.34 15.4037 254.787 14.9457 255.323 14.6202C255.867 14.2871 256.47 14.0535 257.129 13.9194C257.789 13.7853 258.475 13.756 259.189 13.8314C259.87 13.9033 260.514 14.0691 261.124 14.3289C261.734 14.5802 262.28 14.9224 262.761 15.3553C263.251 15.7808 263.622 16.3253 263.875 16.9889C264.127 17.6526 264.211 18.3875 264.126 19.1938ZM262.867 18.9333C262.912 18.505 262.88 18.0813 262.772 17.6622C262.671 17.2439 262.485 16.842 262.211 16.4565C261.947 16.0634 261.545 15.7279 261.005 15.4501C260.466 15.1722 259.822 14.9938 259.075 14.9148C258.52 14.8562 257.992 14.8768 257.489 14.9765C256.995 15.0687 256.54 15.2371 256.123 15.4818C255.707 15.7265 255.36 16.0721 255.084 16.5184C254.816 16.9657 254.649 17.4958 254.584 18.1089C254.468 19.2091 254.75 20.1137 255.431 20.8226C256.112 21.5315 257.108 21.9551 258.418 22.0936C259.149 22.1708 259.798 22.1375 260.365 21.9936C260.933 21.8414 261.386 21.6091 261.725 21.2967C262.065 20.9759 262.327 20.6215 262.513 20.2334C262.699 19.837 262.817 19.4036 262.867 18.9333Z" fill="white"/>
<path d="M272.52 24.9136L265.396 23.8135L266.761 14.9747L268.013 15.168L266.814 22.9302L272.686 23.8369L272.52 24.9136Z" fill="white"/>
<path d="M275.289 16.3348L276.543 16.5855L275.473 21.9396C275.407 22.2708 275.375 22.5615 275.376 22.8116C275.378 23.0617 275.422 23.2728 275.508 23.4451C275.596 23.609 275.667 23.7266 275.722 23.7978C275.777 23.869 275.861 23.9634 275.975 24.081C276.519 24.5944 277.275 24.9479 278.244 25.1415C278.393 25.1713 278.568 25.1978 278.77 25.2209C278.974 25.2358 279.265 25.2465 279.642 25.2531C280.02 25.2597 280.377 25.1975 280.713 25.0666C281.049 24.9357 281.312 24.7427 281.501 24.4877C281.693 24.216 281.844 23.8027 281.955 23.2479L283.028 17.8814L284.282 18.1322L283.227 23.4117C283.087 24.1156 282.894 24.6456 282.651 25.0018C281.805 26.2623 280.247 26.6658 277.978 26.2123C277.779 26.1726 277.578 26.1238 277.374 26.0658C277.177 26.0178 276.904 25.9202 276.554 25.7728C276.203 25.6337 275.89 25.4764 275.615 25.3009C275.34 25.1254 275.07 24.8861 274.803 24.583C274.538 24.2717 274.347 23.9322 274.231 23.5645C274.075 23.0511 274.084 22.3596 274.258 21.4901L275.289 16.3348Z" fill="white"/>
<path d="M294.102 21.6752L290.55 20.788L288.64 28.4326L287.411 28.1255L289.321 20.481L285.781 19.5968L286.039 18.5644L294.36 20.6428L294.102 21.6752Z" fill="white"/>
<path d="M295.452 30.2947L294.209 29.9406L296.661 21.3395L297.903 21.6936L295.452 30.2947Z" fill="white"/>
<path d="M308.979 30.0161C308.572 31.2691 307.781 32.1619 306.604 32.6944C305.436 33.2296 304.045 33.235 302.43 32.7107C300.832 32.1916 299.688 31.3939 298.999 30.3175C298.32 29.2358 298.203 28.0082 298.65 26.6347C298.89 25.8957 299.245 25.2787 299.717 24.7836C300.191 24.2805 300.724 23.9252 301.315 23.7177C301.917 23.5047 302.555 23.4009 303.228 23.4064C303.901 23.4119 304.579 23.5255 305.261 23.7472C305.912 23.9585 306.508 24.2544 307.051 24.6348C307.596 25.0071 308.059 25.4549 308.439 25.9781C308.831 26.4959 309.081 27.1055 309.191 27.8071C309.3 28.5086 309.23 29.2449 308.979 30.0161ZM307.802 29.5004C307.935 29.0907 307.991 28.6696 307.972 28.2371C307.961 27.8072 307.861 27.3753 307.674 26.9415C307.497 26.5022 307.173 26.0907 306.703 25.7071C306.232 25.3235 305.64 25.0156 304.925 24.7834C304.395 24.6112 303.873 24.5218 303.36 24.5151C302.858 24.5029 302.378 24.5734 301.92 24.7265C301.462 24.8796 301.051 25.1459 300.688 25.5252C300.333 25.9072 300.06 26.3914 299.87 26.9778C299.528 28.03 299.617 28.9734 300.136 29.808C300.656 30.6426 301.542 31.2634 302.795 31.6703C303.494 31.8972 304.135 31.9991 304.72 31.9759C305.307 31.9447 305.799 31.8113 306.195 31.5759C306.594 31.3325 306.924 31.0401 307.186 30.6989C307.45 30.3497 307.655 29.9502 307.802 29.5004Z" fill="white"/>
<path d="M318.172 38.2503L317.016 37.7989L313.18 28.3598C311.562 32.5512 310.673 34.8514 310.513 35.2605L309.381 34.8183L312.633 26.487L313.848 26.9615L317.641 36.3704C319.297 32.0579 320.181 29.76 320.291 29.4768L321.424 29.9191L318.172 38.2503Z" fill="white"/>
<path d="M112.153 413.406L106.811 420.578L103.245 417.922C102.906 417.67 102.647 417.466 102.468 417.312C102.281 417.152 102.062 416.909 101.809 416.584C101.556 416.259 101.359 415.902 101.218 415.512C100.967 414.83 100.914 414.138 101.059 413.435C101.191 412.733 101.487 412.075 101.946 411.458C102.345 410.923 102.833 410.487 103.412 410.149C103.983 409.805 104.589 409.614 105.229 409.575C105.725 409.545 106.234 409.618 106.755 409.795C107.271 409.979 107.698 410.176 108.036 410.386C108.363 410.598 108.78 410.893 109.288 411.272L112.153 413.406ZM110.484 413.505L108.289 411.87C107.768 411.482 107.288 411.193 106.85 411.004C106.412 410.814 105.928 410.743 105.398 410.791C104.444 410.87 103.628 411.363 102.953 412.271C102.5 412.892 102.252 413.55 102.209 414.244C102.166 414.939 102.377 415.575 102.841 416.153C103.048 416.412 103.392 416.721 103.873 417.079L106.413 418.971L110.484 413.505Z" fill="white"/>
<path d="M96.652 401.224L103.265 406.685L97.5696 413.581L91.2109 408.33L91.9127 407.48L97.2946 411.925L98.9886 409.873L93.7434 405.542L94.421 404.721L99.6662 409.053L101.586 406.728L95.9502 402.074L96.652 401.224Z" fill="white"/>
<path d="M94.2761 401.553L93.0816 401.114C93.0777 400.893 93.073 400.723 93.0676 400.604C93.0565 400.491 93.0223 400.328 92.9649 400.115C92.9074 399.902 92.8194 399.673 92.7007 399.428C92.3769 398.743 91.8409 398.059 91.0928 397.375C90.3072 396.657 89.5813 396.269 88.9151 396.209C88.405 396.166 87.9848 396.326 87.6544 396.687C87.4721 396.887 87.3682 397.101 87.3426 397.329C87.3108 397.552 87.3571 397.783 87.4815 398.022C87.6002 398.268 87.7294 398.483 87.8693 398.668C88.0029 398.847 88.1796 399.055 88.3995 399.29L89.324 400.306C89.8146 400.846 90.1545 401.225 90.3437 401.444C90.521 401.663 90.6911 401.921 90.8539 402.219C91.0105 402.511 91.1013 402.799 91.1261 403.085C91.1758 403.657 90.9956 404.167 90.5854 404.616C89.9702 405.289 89.209 405.509 88.3017 405.275C87.516 405.083 86.6586 404.563 85.7296 403.714C84.1523 402.273 83.4563 400.825 83.6417 399.37L84.8183 399.81C84.8628 400.4 85.0038 400.94 85.2411 401.432C85.4785 401.923 85.8746 402.422 86.4295 402.929C86.6976 403.174 86.9672 403.386 87.2383 403.565C87.5037 403.751 87.7828 403.909 88.0756 404.039C88.3622 404.163 88.6422 404.208 88.9155 404.171C89.1831 404.141 89.4138 404.02 89.6075 403.808C89.7613 403.64 89.858 403.465 89.8977 403.284C89.9254 403.104 89.8961 402.917 89.8096 402.723C89.7175 402.536 89.6202 402.367 89.5178 402.216C89.4096 402.072 89.2643 401.899 89.0819 401.698L87.2133 399.63C86.5901 398.935 86.2311 398.264 86.1361 397.616C86.0412 396.969 86.2358 396.381 86.72 395.851C86.9707 395.576 87.2541 395.366 87.5703 395.22C87.8866 395.075 88.2597 394.998 88.6898 394.991C89.1141 394.989 89.6075 395.126 90.1698 395.399C90.7264 395.679 91.3102 396.098 91.9212 396.656C92.7441 397.408 93.3812 398.213 93.8324 399.072C94.2836 399.93 94.4315 400.757 94.2761 401.553Z" fill="white"/>
<path d="M86.0116 391.326L86.9349 392.23L80.6777 398.621L79.7545 397.717L86.0116 391.326Z" fill="white"/>
<path d="M78.0256 383.081L78.786 383.879L77.8966 384.727C78.4345 384.716 79.0316 384.852 79.6878 385.137C80.3441 385.421 80.9898 385.897 81.6249 386.563C82.6855 387.676 83.2091 388.886 83.1957 390.194C83.1763 391.507 82.6959 392.613 81.7545 393.51C80.7887 394.431 79.6498 394.846 78.3378 394.755C77.02 394.658 75.8046 394.025 74.6916 392.858C74.0098 392.142 73.5095 391.33 73.1908 390.42C72.8601 389.51 72.8421 388.641 73.1367 387.812L74.2684 388.448C74.1478 388.995 74.1696 389.581 74.3339 390.206C74.492 390.837 74.8537 391.449 75.4189 392.042C76.2114 392.873 77.1048 393.357 78.0991 393.495C79.0934 393.632 79.9879 393.322 80.7825 392.564C81.62 391.766 82.0031 390.858 81.9318 389.841C81.8606 388.824 81.4375 387.909 80.6624 387.096C80.2079 386.619 79.67 386.257 79.0487 386.009C78.4155 385.761 77.7987 385.701 77.1982 385.83C76.88 385.9 76.5203 386.08 76.1191 386.369L78.8375 389.22L78.0673 389.955L74.6147 386.333L78.0256 383.081Z" fill="white"/>
<path d="M70.7004 374.573L71.5079 375.516L70.4449 385.649C73.8466 382.714 75.7142 381.103 76.0478 380.818L76.8388 381.741L70.0454 387.558L69.1968 386.567L70.2832 376.481C66.7907 379.505 64.929 381.116 64.6981 381.314L63.9071 380.39L70.7004 374.573Z" fill="white"/>
<path d="M68.4348 373.856L67.573 372.777L68.8301 371.773C69.2128 371.468 69.5651 371.327 69.8869 371.351C70.2034 371.368 70.5178 371.565 70.8301 371.943L70.2857 372.378C70.1289 372.222 69.9937 372.141 69.8803 372.134C69.7616 372.121 69.6165 372.183 69.4449 372.32L69.148 372.557L69.5038 373.002L68.4348 373.856Z" fill="white"/>
<path d="M57.7811 361.845L57.2263 360.591C59.1767 360.255 60.9088 361.144 62.4225 363.259C63.027 364.104 63.4254 364.951 63.6176 365.8C63.8029 366.654 63.7427 367.492 63.4372 368.313C63.1198 369.132 62.5422 369.841 61.7043 370.441C60.5573 371.261 59.3569 371.528 58.1029 371.242C56.849 370.955 55.7355 370.132 54.7624 368.772C53.3617 366.815 53.09 364.948 53.9475 363.171L54.9733 364.104C54.6636 364.73 54.5846 365.389 54.7364 366.08C54.8764 366.769 55.1774 367.437 55.6394 368.082C55.8803 368.419 56.1422 368.719 56.4251 368.984C56.7012 369.254 57.0171 369.485 57.3726 369.677C57.7233 369.862 58.0812 369.985 58.4465 370.046C58.8118 370.106 59.2093 370.081 59.6392 369.971C60.0692 369.861 60.4936 369.656 60.9125 369.356C61.8878 368.658 62.401 367.808 62.4521 366.805C62.4964 365.808 62.15 364.794 61.4127 363.764C60.3659 362.301 59.1553 361.662 57.7811 361.845Z" fill="white"/>
<path d="M52.8976 349.28L53.7911 350.679L52.4004 355.16L54.7263 358.801L57.7473 356.87L58.4362 357.948L50.8998 362.764L47.6189 357.629C47.2961 357.124 47.0806 356.701 46.9724 356.359C46.7848 355.767 46.7873 355.214 46.98 354.7C47.1727 354.186 47.5288 353.763 48.0483 353.431C49.0019 352.822 49.9052 352.816 50.7581 353.414C50.9844 353.58 51.2271 353.81 51.4861 354.106L52.8976 349.28ZM53.8471 359.377L51.4666 355.652C51.2984 355.389 51.1548 355.18 51.036 355.025C50.9126 354.863 50.7401 354.703 50.5182 354.544C50.2848 354.383 50.0452 354.29 49.7997 354.267C49.4609 354.222 49.1278 354.305 48.8004 354.514C48.53 354.687 48.3254 354.908 48.1866 355.177C48.0214 355.483 47.9724 355.775 48.0396 356.053C48.1023 356.323 48.245 356.633 48.4679 356.982L51.1144 361.124L53.8471 359.377Z" fill="white"/>
<path d="M48.0899 340.754L52.3242 348.212L44.5468 352.628L40.4751 345.456L41.4335 344.912L44.8797 350.982L47.1931 349.669L43.8345 343.753L44.7598 343.228L48.1185 349.143L50.7404 347.655L47.1315 341.298L48.0899 340.754Z" fill="white"/>
<path d="M43.0434 330.817L43.7065 332.128L42.2311 334.095L44.712 339.001L47.1706 338.979L47.8166 340.256L37.7432 340.155L37.1315 338.945L43.0434 330.817ZM41.5612 335.044L38.5934 339.001L43.5562 338.99L41.5612 335.044Z" fill="white"/>
<path d="M32.3382 326.16L33.8439 329.497L41.0261 326.256L41.5471 327.411L34.365 330.652L35.8655 333.977L34.8956 334.415L31.3682 326.598L32.3382 326.16Z" fill="white"/>
<path d="M35.898 313.846L39.0773 321.812L30.771 325.127L27.7138 317.468L28.7373 317.059L31.325 323.542L33.7957 322.556L31.2738 316.238L32.2621 315.843L34.784 322.161L37.5841 321.044L34.8744 314.255L35.898 313.846Z" fill="white"/>
<path d="M34.1248 312.826L33.6554 311.527L35.1685 310.98C35.6291 310.814 36.008 310.794 36.305 310.92C36.5992 311.038 36.8335 311.326 37.0079 311.784L36.3526 312.021C36.2542 311.823 36.1523 311.702 36.0471 311.66C35.9389 311.609 35.7816 311.621 35.5751 311.696L35.2177 311.825L35.4115 312.361L34.1248 312.826Z" fill="white"/>
<path d="M33.0827 305.724L24.5369 308.362L23.2257 304.113C23.1011 303.709 23.0121 303.392 22.9585 303.161C22.9024 302.922 22.8683 302.597 22.8561 302.185C22.844 301.774 22.8958 301.369 23.0116 300.971C23.2116 300.272 23.5774 299.682 24.1091 299.2C24.6303 298.712 25.258 298.355 25.9924 298.128C26.6299 297.932 27.2818 297.867 27.9481 297.936C28.6119 297.996 29.2137 298.199 29.7536 298.545C30.1723 298.814 30.5395 299.173 30.8554 299.624C31.1631 300.077 31.3916 300.488 31.5409 300.857C31.6797 301.221 31.8425 301.705 32.0293 302.311L33.0827 305.724ZM31.6765 304.819L30.8696 302.205C30.6779 301.583 30.461 301.067 30.2192 300.655C29.9773 300.244 29.6284 299.901 29.1724 299.626C28.3555 299.127 27.4063 299.044 26.325 299.378C25.5931 299.613 25.0048 299.997 24.5601 300.532C24.1153 301.067 23.91 301.705 23.9442 302.446C23.9581 302.778 24.0535 303.23 24.2303 303.803L25.1643 306.829L31.6765 304.819Z" fill="white"/>
<path d="M27.8013 286.818L29.9094 295.131L21.2403 297.329L19.2131 289.335L20.2814 289.064L21.9972 295.83L24.5758 295.176L22.9037 288.582L23.9351 288.321L25.6073 294.915L28.5297 294.174L26.733 287.088L27.8013 286.818Z" fill="white"/>
<path d="M27.4156 284.982L18.6523 286.769L17.5314 281.27C17.2446 279.863 17.4387 278.806 18.1135 278.1C18.4913 277.713 18.9616 277.462 19.5243 277.347C20.3766 277.173 21.0969 277.345 21.6852 277.863C21.9161 278.066 22.1075 278.307 22.2592 278.586C22.411 278.866 22.5171 279.111 22.5775 279.323C22.6379 279.535 22.7077 279.835 22.787 280.224L23.6448 284.432L27.1575 283.716L27.4156 284.982ZM22.6046 284.657L21.7798 280.611C21.7207 280.321 21.6644 280.087 21.6107 279.908C21.5571 279.729 21.4611 279.534 21.3228 279.32C21.1763 279.109 20.9968 278.947 20.7844 278.835C20.484 278.673 20.1311 278.632 19.7256 278.715C19.3532 278.791 19.0599 278.959 18.8455 279.218C18.6872 279.414 18.5854 279.654 18.5401 279.939C18.4931 280.216 18.484 280.446 18.5128 280.63C18.5334 280.816 18.5766 281.07 18.6424 281.392L19.4394 285.302L22.6046 284.657Z" fill="white"/>
<path d="M24.3118 267.714L25.4423 274.833L16.6094 276.236L16.4107 274.985L24.1677 273.753L23.2359 267.885L24.3118 267.714Z" fill="white"/>
<path d="M18.6868 256.597C19.9963 256.452 21.1358 256.806 22.1054 257.659C23.074 258.503 23.6517 259.769 23.8385 261.456C24.0234 263.126 23.7673 264.497 23.0701 265.569C22.3637 266.632 21.2928 267.244 19.8574 267.403C19.0851 267.488 18.3764 267.418 17.7311 267.192C17.0774 266.967 16.5343 266.628 16.1018 266.174C15.6599 265.713 15.3029 265.175 15.0308 264.559C14.7588 263.944 14.5833 263.279 14.5043 262.566C14.429 261.886 14.4531 261.22 14.5765 260.569C14.6915 259.919 14.909 259.313 15.2291 258.751C15.5399 258.181 15.9925 257.702 16.5867 257.313C17.181 256.925 17.881 256.686 18.6868 256.597ZM18.7017 257.882C18.2736 257.93 17.8664 258.051 17.4802 258.247C17.0931 258.434 16.7405 258.703 16.4223 259.052C16.0948 259.394 15.8531 259.859 15.6971 260.445C15.5411 261.032 15.5044 261.699 15.5871 262.446C15.6484 263 15.7816 263.512 15.9866 263.982C16.1822 264.445 16.4441 264.853 16.7723 265.208C17.1004 265.562 17.512 265.827 18.0072 266.002C18.5014 266.168 19.0549 266.217 19.6677 266.149C20.7673 266.027 21.5905 265.558 22.1374 264.741C22.6843 263.925 22.8852 262.862 22.7403 261.552C22.6594 260.822 22.4881 260.195 22.2262 259.672C21.956 259.149 21.6321 258.756 21.2545 258.492C20.8685 258.229 20.4661 258.048 20.0474 257.95C19.6203 257.853 19.1717 257.83 18.7017 257.882Z" fill="white"/>
<path d="M13.4488 245.198L19.1778 249.421L22.6307 249.228L22.7005 250.48L19.2222 250.674L14.0188 255.43L13.9279 253.798L18.1119 250.102L13.539 246.817L13.4488 245.198Z" fill="white"/>
<path d="M450.198 255.945L450.297 254.478L452.569 253.54L452.939 248.054L450.813 246.819L450.909 245.391L459.521 250.618L459.43 251.97L450.198 255.945ZM453.63 253.065L458.201 251.176L453.927 248.654L453.63 253.065Z" fill="white"/>
<path d="M449.641 260.923L458.506 262.107L457.763 267.67C457.573 269.093 457.043 270.027 456.174 270.474C455.69 270.716 455.164 270.799 454.594 270.723C453.732 270.608 453.108 270.209 452.722 269.527C452.57 269.26 452.469 268.969 452.417 268.655C452.365 268.342 452.345 268.075 452.357 267.855C452.37 267.635 452.402 267.329 452.455 266.935L453.023 262.678L449.47 262.204L449.641 260.923ZM454.08 262.807L453.533 266.9C453.494 267.193 453.47 267.433 453.463 267.619C453.455 267.806 453.481 268.022 453.542 268.269C453.611 268.517 453.728 268.728 453.892 268.903C454.122 269.156 454.442 269.309 454.853 269.364C455.229 269.414 455.561 269.352 455.849 269.178C456.063 269.044 456.238 268.85 456.374 268.596C456.509 268.35 456.593 268.135 456.626 267.952C456.667 267.77 456.71 267.516 456.753 267.19L457.282 263.234L454.08 262.807Z" fill="white"/>
<path d="M446.986 277.945L448.242 270.847L457.049 272.405L456.828 273.653L449.094 272.285L448.059 278.135L446.986 277.945Z" fill="white"/>
<path d="M444.597 288.692L444.92 287.258L447.309 286.679L448.515 281.315L446.603 279.768L446.917 278.372L454.626 284.857L454.329 286.179L444.597 288.692ZM448.43 286.372L453.236 285.206L449.399 282.059L448.43 286.372Z" fill="white"/>
<path d="M449.861 299.209L450.827 295.677L443.226 293.599L443.561 292.377L451.161 294.455L452.123 290.936L453.15 291.217L450.888 299.489L449.861 299.209Z" fill="white"/>
<path d="M446.919 308.331L448.955 301.946L446.228 301.076L444.269 307.219L443.267 306.9L445.226 300.757L441.485 299.564L441.866 298.369L450.386 301.086L447.969 308.665L446.919 308.331Z" fill="white"/>
<path d="M439.181 319.063C437.948 318.597 437.094 317.764 436.618 316.563C436.14 315.371 436.2 313.981 436.801 312.393C437.396 310.821 438.247 309.717 439.355 309.079C440.468 308.453 441.7 308.395 443.05 308.906C443.777 309.181 444.376 309.566 444.848 310.061C445.328 310.558 445.658 311.107 445.837 311.708C446.021 312.319 446.094 312.961 446.057 313.633C446.019 314.305 445.873 314.977 445.619 315.648C445.377 316.288 445.053 316.87 444.648 317.393C444.25 317.92 443.78 318.361 443.24 318.716C442.704 319.082 442.083 319.303 441.377 319.38C440.671 319.456 439.939 319.35 439.181 319.063ZM439.752 317.911C440.155 318.064 440.573 318.141 441.006 318.142C441.436 318.151 441.872 318.072 442.314 317.905C442.761 317.75 443.188 317.446 443.593 316.994C443.999 316.543 444.335 315.966 444.6 315.263C444.798 314.741 444.912 314.225 444.943 313.713C444.979 313.212 444.932 312.729 444.8 312.264C444.669 311.799 444.423 311.376 444.061 310.995C443.697 310.623 443.226 310.327 442.649 310.109C441.615 309.718 440.668 309.761 439.81 310.24C438.951 310.719 438.289 311.575 437.823 312.807C437.563 313.494 437.431 314.13 437.426 314.715C437.429 315.304 437.539 315.801 437.755 316.208C437.979 316.618 438.256 316.962 438.584 317.239C438.92 317.52 439.31 317.744 439.752 317.911Z" fill="white"/>
<path d="M430.143 328.744L430.817 327.227L435.322 325.915L437.076 321.968L433.799 320.512L434.319 319.343L442.492 322.974L440.019 328.542C439.775 329.09 439.541 329.504 439.315 329.782C438.925 330.265 438.463 330.568 437.928 330.691C437.393 330.814 436.843 330.75 436.28 330.499C435.246 330.04 434.743 329.29 434.771 328.249C434.784 327.968 434.843 327.639 434.947 327.26L430.143 328.744ZM438.042 322.383L436.247 326.423C436.12 326.709 436.025 326.944 435.962 327.128C435.895 327.32 435.856 327.553 435.846 327.825C435.84 328.109 435.895 328.36 436.011 328.578C436.161 328.885 436.413 329.117 436.768 329.275C437.062 329.405 437.359 329.454 437.66 329.421C438.006 329.39 438.277 329.27 438.471 329.061C438.663 328.859 438.842 328.57 439.01 328.191L441.006 323.7L438.042 322.383Z" fill="white"/>
<path d="M424.846 339.053L425.395 337.982L432.197 341.543L427.038 334.781L427.581 333.722L436.077 333.98C431.7 331.782 429.413 330.632 429.218 330.532L429.761 329.473L437.719 333.555L436.921 335.111L428.515 334.899L433.59 341.603L432.803 343.136L424.846 339.053Z" fill="white"/>
<path d="M420.359 355.055C419.234 354.369 418.55 353.391 418.305 352.124C418.055 350.863 418.373 349.508 419.257 348.06C420.133 346.625 421.174 345.698 422.381 345.277C423.591 344.868 424.812 345.039 426.045 345.792C426.708 346.197 427.225 346.686 427.598 347.26C427.977 347.838 428.199 348.438 428.264 349.061C428.331 349.696 428.284 350.341 428.123 350.994C427.961 351.647 427.693 352.28 427.319 352.893C426.963 353.477 426.537 353.989 426.041 354.428C425.552 354.872 425.009 355.218 424.412 355.467C423.817 355.727 423.166 355.829 422.459 355.773C421.751 355.717 421.051 355.478 420.359 355.055ZM421.134 354.029C421.501 354.254 421.898 354.407 422.323 354.488C422.744 354.577 423.187 354.58 423.652 354.499C424.121 354.428 424.596 354.209 425.078 353.84C425.561 353.472 425.998 352.967 426.389 352.325C426.68 351.85 426.888 351.363 427.013 350.866C427.142 350.38 427.185 349.897 427.142 349.416C427.099 348.934 426.936 348.473 426.651 348.032C426.362 347.598 425.954 347.221 425.428 346.899C424.484 346.323 423.545 346.19 422.613 346.502C421.681 346.813 420.871 347.531 420.185 348.656C419.802 349.283 419.554 349.883 419.441 350.457C419.335 351.036 419.35 351.545 419.488 351.985C419.632 352.429 419.84 352.818 420.111 353.152C420.389 353.49 420.73 353.783 421.134 354.029Z" fill="white"/>
<path d="M417.437 365.507L421.219 359.975L418.855 358.359L415.216 363.682L414.348 363.088L417.988 357.765L414.746 355.549L415.454 354.514L422.836 359.561L418.346 366.129L417.437 365.507Z" fill="white"/>
<path d="M409.233 378.043L407.694 371.094L404.966 368.968L405.737 367.979L408.485 370.12L415.533 369.959L414.528 371.248L408.945 371.282L410.23 376.764L409.233 378.043Z" fill="white"/>
<path d="M397.658 384.353C396.665 383.488 396.154 382.41 396.125 381.119C396.09 379.834 396.631 378.552 397.746 377.272C398.85 376.005 400.032 375.265 401.292 375.053C402.554 374.852 403.729 375.227 404.817 376.175C405.403 376.686 405.831 377.255 406.102 377.883C406.379 378.516 406.497 379.145 406.456 379.771C406.416 380.408 406.262 381.035 405.993 381.652C405.724 382.269 405.354 382.848 404.883 383.39C404.433 383.905 403.927 384.338 403.365 384.688C402.808 385.044 402.215 385.294 401.585 385.439C400.955 385.596 400.296 385.588 399.608 385.413C398.919 385.239 398.269 384.886 397.658 384.353ZM398.594 383.472C398.919 383.755 399.284 383.972 399.689 384.124C400.089 384.282 400.526 384.36 400.998 384.357C401.472 384.366 401.977 384.23 402.515 383.948C403.052 383.665 403.567 383.241 404.061 382.674C404.427 382.254 404.714 381.809 404.921 381.34C405.129 380.883 405.253 380.413 405.291 379.932C405.33 379.45 405.246 378.968 405.039 378.485C404.827 378.009 404.488 377.569 404.023 377.164C403.189 376.437 402.287 376.149 401.315 376.299C400.344 376.45 399.426 377.022 398.56 378.015C398.077 378.569 397.732 379.12 397.524 379.667C397.323 380.219 397.253 380.724 397.314 381.181C397.382 381.643 397.521 382.061 397.733 382.436C397.95 382.816 398.238 383.161 398.594 383.472Z" fill="white"/>
<path d="M399.486 389.08L398.594 389.997L394.679 386.191C394.437 385.956 394.211 385.771 394 385.636C393.789 385.502 393.588 385.424 393.396 385.403C393.211 385.388 393.073 385.384 392.984 385.391C392.894 385.398 392.769 385.418 392.608 385.45C391.882 385.627 391.175 386.07 390.486 386.779C390.38 386.888 390.262 387.021 390.133 387.178C390.01 387.341 389.843 387.579 389.633 387.893C389.422 388.206 389.281 388.539 389.208 388.893C389.135 389.246 389.155 389.571 389.266 389.869C389.39 390.177 389.655 390.529 390.061 390.923L393.984 394.738L393.092 395.656L389.232 391.903C388.718 391.402 388.377 390.953 388.21 390.555C387.611 389.16 388.118 387.633 389.731 385.974C389.872 385.829 390.023 385.686 390.182 385.547C390.329 385.407 390.56 385.231 390.873 385.017C391.181 384.798 391.483 384.621 391.78 384.485C392.076 384.349 392.424 384.252 392.824 384.193C393.229 384.139 393.618 384.163 393.989 384.266C394.505 384.414 395.081 384.797 395.717 385.415L399.486 389.08Z" fill="white"/>
<path d="M377.327 398.103L378.547 396.978L383.203 397.561L386.379 394.632L383.949 391.997L384.889 391.129L390.952 397.704L386.473 401.835C386.032 402.241 385.653 402.528 385.336 402.694C384.786 402.983 384.241 403.077 383.701 402.978C383.162 402.878 382.683 402.602 382.265 402.149C381.498 401.317 381.333 400.429 381.772 399.484C381.896 399.232 382.08 398.953 382.326 398.646L377.327 398.103ZM387.101 395.397L383.851 398.394C383.621 398.606 383.441 398.784 383.31 398.928C383.172 399.078 383.044 399.276 382.927 399.522C382.809 399.78 382.76 400.032 382.78 400.278C382.796 400.619 382.936 400.933 383.199 401.218C383.416 401.454 383.67 401.617 383.959 401.706C384.289 401.815 384.585 401.812 384.847 401.697C385.102 401.588 385.382 401.393 385.686 401.113L389.3 397.781L387.101 395.397Z" fill="white"/>
<path d="M368.417 410.939C367.593 409.911 367.281 408.759 367.482 407.483C367.675 406.213 368.434 405.047 369.759 403.985C371.07 402.934 372.364 402.415 373.642 402.429C374.919 402.456 376.009 403.032 376.913 404.159C377.399 404.765 377.719 405.401 377.874 406.067C378.035 406.739 378.039 407.379 377.888 407.988C377.736 408.608 377.473 409.198 377.099 409.757C376.725 410.317 376.258 410.821 375.698 411.27C375.165 411.698 374.59 412.035 373.974 412.279C373.364 412.531 372.736 412.672 372.089 412.703C371.442 412.746 370.795 412.621 370.148 412.327C369.501 412.034 368.925 411.571 368.417 410.939ZM369.495 410.237C369.764 410.573 370.085 410.852 370.457 411.073C370.823 411.299 371.238 411.453 371.704 411.534C372.169 411.627 372.69 411.583 373.269 411.4C373.848 411.217 374.43 410.891 375.017 410.421C375.452 410.072 375.812 409.685 376.1 409.26C376.385 408.847 376.59 408.407 376.713 407.94C376.837 407.473 376.839 406.983 376.721 406.472C376.597 405.965 376.342 405.472 375.956 404.991C375.264 404.128 374.427 403.684 373.444 403.66C372.461 403.636 371.456 404.036 370.428 404.861C369.855 405.32 369.418 405.801 369.116 406.302C368.82 406.811 368.662 407.295 368.641 407.755C368.626 408.222 368.689 408.658 368.831 409.065C368.978 409.477 369.199 409.868 369.495 410.237Z" fill="white"/>
<path d="M358.814 423.386L356.074 414.376L357.223 413.566L363.595 418.032L361.541 410.522L362.721 409.69L370.255 415.321L369.147 416.102L362.9 411.285L364.985 419.036L364.064 419.686L357.496 415.14L359.912 422.613L358.814 423.386Z" fill="white"/>
<path d="M344.767 421.515L345.822 420.86L355.676 423.451C353.292 419.642 351.984 417.552 351.752 417.178L352.785 416.537L357.502 424.136L356.394 424.824L346.59 422.217C349.048 426.129 350.357 428.213 350.517 428.472L349.484 429.113L344.767 421.515Z" fill="white"/>
<defs>
<clipPath id="clip0_3901_3101">
<rect width="25.1982" height="25.1982" fill="white" transform="translate(27.8646 131.097) rotate(-60)"/>
</clipPath>
<clipPath id="clip1_3901_3101">
<rect width="25.1982" height="25.1982" fill="white" transform="translate(430.334 109.274) rotate(60)"/>
</clipPath>
<clipPath id="clip2_3901_3101">
<rect width="25.1982" height="25.1982" fill="white" transform="translate(248.599 469.569) rotate(-180)"/>
</clipPath>
</defs>
</svg>
